Coordinates
version=1
nRows=8
nColumns=34
inDegrees=yes

Units are S.I. units (second, meters, Newtons, ...)
If the header above contains a line with 'inDegrees', this indicates whether rotational values are in degrees (yes) or radians (no).

endheader
time	pelvis_tilt	pelvis_list	pelvis_rotation	pelvis_tx	pelvis_ty	pelvis_tz	hip_flexion_r	hip_adduction_r	hip_rotation_r	knee_angle_r	ankle_angle_r	subtalar_angle_r	mtp_angle_r	hip_flexion_l	hip_adduction_l	hip_rotation_l	knee_angle_l	ankle_angle_l	subtalar_angle_l	mtp_angle_l	lumbar_extension	lumbar_bending	lumbar_rotation	arm_flex_r	arm_add_r	arm_rot_r	elbow_flex_r	pro_sup_r	arm_flex_l	arm_add_l	arm_rot_l	elbow_flex_l	pro_sup_l
      8.91666670	     -0.84060607	     -7.25408408	    -65.94395751	      1.58166580	      1.01603562	      6.80467746	    -11.27423691	      8.83312199	      2.98633002	     33.11983358	     16.36597148	     32.79841148	      0.00000000	    -30.00000025	      0.11976160	    -12.62767195	      0.00000000	     36.80632830	     15.24687409	      0.00000000	     -0.23574106	     11.27145207	     13.02626966	     16.50343158	      1.98716200	     17.83568134	     20.16597953	    118.30319771	     12.51841993	      2.81845060	     26.98969015	     19.27033147	    108.11846909
      8.93333330	     -0.68808856	     -7.20738329	    -66.44936668	      1.58020957	      1.01589131	      6.80452402	    -11.34156756	      8.37393216	      2.87949970	     32.39214629	     13.54060342	     32.81175147	      0.00000000	    -30.00000025	      0.50517045	    -12.77667651	      0.00000000	     36.49340852	     14.75033962	      0.00000000	     -0.48297611	     11.09451268	     12.58132543	     17.06958623	      2.36282643	     17.68249066	     20.11388596	    118.38796758	     13.04512157	      2.10308293	     27.55627171	     20.21848266	    108.28839027
      8.95000000	     -0.65693086	     -7.19355798	    -66.70118887	      1.57955548	      1.01563882	      6.80454181	    -11.84282613	      8.16539359	      2.70981333	     31.12990941	     11.41257597	     32.15302798	      0.00000000	    -30.00000025	      0.65585784	    -12.59008646	      0.00000000	     36.37640132	     14.07340103	      0.00000000	     -0.64394425	     11.14104992	     11.98255805	     17.73784386	      2.59822759	     17.20469305	     19.89295796	    118.46867216	     13.41120561	      0.99545196	     29.24645460	     21.82812151	    108.80142433
      8.96666670	     -0.61452844	     -7.15986428	    -66.66973999	      1.57883121	      1.01506651	      6.80588000	    -12.47313323	      8.50106278	      3.91329158	     29.81677117	      9.97043374	     29.83953541	      0.00000000	    -30.00000025	      0.61344011	    -11.12593592	      0.11000567	     36.29737745	     12.11447989	      0.00000000	     -0.47569528	     10.86928735	     11.58926668	     17.99755969	      3.00806050	     15.69666945	     20.13596947	    118.89016014	     14.42113765	     -0.46763444	     34.63681063	     22.19353356	    110.50866927
      8.98333330	      0.07923383	     -7.02908888	    -66.41734520	      1.57776747	      1.01438570	      6.80588066	    -12.61390601	      8.16139818	      4.79187603	     29.72241752	      9.06740673	     28.01443606	      0.00000000	    -30.00000025	      1.09200372	    -10.58120343	      0.34521543	     36.41628065	     11.93062571	      0.00000000	     -0.79061687	      9.70614304	     10.65970326	     18.76003547	      3.67072651	     15.38307098	     20.18651636	    119.03566582	     14.99547472	     -1.92532780	     35.58153083	     23.63175299	    110.90695655
      9.00000000	      0.21432311	     -6.89878541	    -66.10321746	      1.57720940	      1.01367612	      6.80743240	    -12.80756649	      8.79202979	      6.95159274	     29.16169231	      7.96501632	     25.18778752	      0.00000000	    -30.00000025	      1.01916564	     -9.66070250	      0.32109770	     36.38851158	     11.20578337	      0.00000000	     -0.61502234	      9.14065863	      9.78903851	     19.12096803	      4.20438253	     14.83327182	     20.23265305	    119.41379377	     15.71711728	     -3.37483618	     38.73641910	     24.26617117	    112.18121710
      9.01666670	      0.49725050	     -6.50425220	    -65.81964213	      1.57778482	      1.01228562	      6.80947827	    -12.54140078	      8.72612548	      7.44984034	     29.52076749	      7.77247731	     23.64957868	      0.00000000	    -30.00000025	      1.31097277	     -9.49541197	      0.00786477	     36.33181934	     11.40229846	      0.00000000	     -0.22003357	      8.29491487	      8.80988115	     19.13407063	      4.57266314	     14.73428692	     20.43136792	    119.54616153	     15.87238978	     -4.74030768	     39.95148556	     25.60179884	    112.67458198
      9.03333330	      0.72105086	     -6.23851435	    -65.42131816	      1.57847853	      1.01081639	      6.81218242	    -12.50034610	      8.76176003	      7.45903888	     29.73730870	      7.28797181	     21.74678788	      0.00000000	    -30.00000025	      1.37071092	     -9.38217228	      0.00000000	     36.50725084	     11.78113793	      0.00000000	      0.12494417	      7.59862175	      7.99199580	     18.82459745	      4.66993937	     14.75347482	     20.72505247	    119.68608152	     16.11849775	     -6.07136404	     41.55530428	     27.05978346	    113.29592156
